<mxfile host="app.diagrams.net" agent="Mozilla/5.0 (X11; Linux x86_64; rv:133.0) Gecko/20100101 Firefox/133.0" version="26.2.9">
  <diagram id="C5RBs43oDa-KdzZeNtuy" name="Page-1">
    <mxGraphModel dx="1428" dy="764" grid="1" gridSize="10" guides="1" tooltips="1" connect="1" arrows="1" fold="1" page="1" pageScale="1" pageWidth="827" pageHeight="1169" math="0" shadow="0">
      <root>
        <mxCell id="WIyWlLk6GJQsqaUBKTNV-0" />
        <mxCell id="WIyWlLk6GJQsqaUBKTNV-1" parent="WIyWlLk6GJQsqaUBKTNV-0" />
        <mxCell id="zkfFHV4jXpPFQw0GAbJ--0" value="Ambiente" style="swimlane;fontStyle=2;align=center;verticalAlign=top;childLayout=stackLayout;horizontal=1;startSize=26;horizontalStack=0;resizeParent=1;resizeLast=0;collapsible=1;marginBottom=0;rounded=0;shadow=0;strokeWidth=1;" parent="WIyWlLk6GJQsqaUBKTNV-1" vertex="1">
          <mxGeometry x="40" y="20" width="240" height="200" as="geometry">
            <mxRectangle x="230" y="140" width="160" height="26" as="alternateBounds" />
          </mxGeometry>
        </mxCell>
        <mxCell id="zkfFHV4jXpPFQw0GAbJ--1" value="-int: Dimensões" style="text;align=left;verticalAlign=top;spacingLeft=4;spacingRight=4;overflow=hidden;rotatable=0;points=[[0,0.5],[1,0.5]];portConstraint=eastwest;" parent="zkfFHV4jXpPFQw0GAbJ--0" vertex="1">
          <mxGeometry y="26" width="240" height="26" as="geometry" />
        </mxCell>
        <mxCell id="zkfFHV4jXpPFQw0GAbJ--2" value="-int[][]: mapa" style="text;align=left;verticalAlign=top;spacingLeft=4;spacingRight=4;overflow=hidden;rotatable=0;points=[[0,0.5],[1,0.5]];portConstraint=eastwest;rounded=0;shadow=0;html=0;" parent="zkfFHV4jXpPFQw0GAbJ--0" vertex="1">
          <mxGeometry y="52" width="240" height="26" as="geometry" />
        </mxCell>
        <mxCell id="BTJYk5Sh1vVtc7OO9lpk-11" value="-ArrayList&amp;lt;Robô&amp;gt;" style="text;strokeColor=none;fillColor=none;align=left;verticalAlign=middle;spacingLeft=4;spacingRight=4;overflow=hidden;points=[[0,0.5],[1,0.5]];portConstraint=eastwest;rotatable=0;whiteSpace=wrap;html=1;" vertex="1" parent="zkfFHV4jXpPFQw0GAbJ--0">
          <mxGeometry y="78" width="240" height="30" as="geometry" />
        </mxCell>
        <mxCell id="BTJYk5Sh1vVtc7OO9lpk-12" value="-Arraylist&amp;lt;Obstáculo&amp;gt;" style="text;strokeColor=none;fillColor=none;align=left;verticalAlign=middle;spacingLeft=4;spacingRight=4;overflow=hidden;points=[[0,0.5],[1,0.5]];portConstraint=eastwest;rotatable=0;whiteSpace=wrap;html=1;" vertex="1" parent="zkfFHV4jXpPFQw0GAbJ--0">
          <mxGeometry y="108" width="240" height="30" as="geometry" />
        </mxCell>
        <mxCell id="BTJYk5Sh1vVtc7OO9lpk-16" value="+registra_no_mapa(in:Obstáculo):void" style="text;strokeColor=none;fillColor=none;align=left;verticalAlign=middle;spacingLeft=4;spacingRight=4;overflow=hidden;points=[[0,0.5],[1,0.5]];portConstraint=eastwest;rotatable=0;whiteSpace=wrap;html=1;" vertex="1" parent="zkfFHV4jXpPFQw0GAbJ--0">
          <mxGeometry y="138" width="240" height="28" as="geometry" />
        </mxCell>
        <mxCell id="BTJYk5Sh1vVtc7OO9lpk-21" value="+dentro_dos_limites(int x, int y, int z):void" style="text;strokeColor=none;fillColor=none;align=left;verticalAlign=top;spacingLeft=4;spacingRight=4;overflow=hidden;rotatable=0;points=[[0,0.5],[1,0.5]];portConstraint=eastwest;whiteSpace=wrap;html=1;" vertex="1" parent="zkfFHV4jXpPFQw0GAbJ--0">
          <mxGeometry y="166" width="240" height="26" as="geometry" />
        </mxCell>
        <mxCell id="zkfFHV4jXpPFQw0GAbJ--17" value="Robô&#xa;" style="swimlane;fontStyle=0;align=center;verticalAlign=top;childLayout=stackLayout;horizontal=1;startSize=26;horizontalStack=0;resizeParent=1;resizeLast=0;collapsible=1;marginBottom=0;rounded=0;shadow=0;strokeWidth=1;" parent="WIyWlLk6GJQsqaUBKTNV-1" vertex="1">
          <mxGeometry x="540" y="30" width="220" height="208" as="geometry">
            <mxRectangle x="550" y="140" width="160" height="26" as="alternateBounds" />
          </mxGeometry>
        </mxCell>
        <mxCell id="zkfFHV4jXpPFQw0GAbJ--18" value="-String: Nome" style="text;align=left;verticalAlign=top;spacingLeft=4;spacingRight=4;overflow=hidden;rotatable=0;points=[[0,0.5],[1,0.5]];portConstraint=eastwest;" parent="zkfFHV4jXpPFQw0GAbJ--17" vertex="1">
          <mxGeometry y="26" width="220" height="26" as="geometry" />
        </mxCell>
        <mxCell id="zkfFHV4jXpPFQw0GAbJ--19" value="-String: Direção" style="text;align=left;verticalAlign=top;spacingLeft=4;spacingRight=4;overflow=hidden;rotatable=0;points=[[0,0.5],[1,0.5]];portConstraint=eastwest;rounded=0;shadow=0;html=0;" parent="zkfFHV4jXpPFQw0GAbJ--17" vertex="1">
          <mxGeometry y="52" width="220" height="26" as="geometry" />
        </mxCell>
        <mxCell id="zkfFHV4jXpPFQw0GAbJ--20" value="-int: x,y,z&#xa;" style="text;align=left;verticalAlign=top;spacingLeft=4;spacingRight=4;overflow=hidden;rotatable=0;points=[[0,0.5],[1,0.5]];portConstraint=eastwest;rounded=0;shadow=0;html=0;" parent="zkfFHV4jXpPFQw0GAbJ--17" vertex="1">
          <mxGeometry y="78" width="220" height="26" as="geometry" />
        </mxCell>
        <mxCell id="BTJYk5Sh1vVtc7OO9lpk-25" value="-Ambiente: habitat" style="text;strokeColor=none;fillColor=none;align=left;verticalAlign=top;spacingLeft=4;spacingRight=4;overflow=hidden;rotatable=0;points=[[0,0.5],[1,0.5]];portConstraint=eastwest;whiteSpace=wrap;html=1;" vertex="1" parent="zkfFHV4jXpPFQw0GAbJ--17">
          <mxGeometry y="104" width="220" height="26" as="geometry" />
        </mxCell>
        <mxCell id="BTJYk5Sh1vVtc7OO9lpk-26" value="-Arraylist&amp;lt;Sensor&amp;gt;" style="text;strokeColor=none;fillColor=none;align=left;verticalAlign=top;spacingLeft=4;spacingRight=4;overflow=hidden;rotatable=0;points=[[0,0.5],[1,0.5]];portConstraint=eastwest;whiteSpace=wrap;html=1;" vertex="1" parent="zkfFHV4jXpPFQw0GAbJ--17">
          <mxGeometry y="130" width="220" height="26" as="geometry" />
        </mxCell>
        <mxCell id="BTJYk5Sh1vVtc7OO9lpk-7" value="" style="endArrow=none;html=1;rounded=0;entryX=1.014;entryY=0.962;entryDx=0;entryDy=0;exitX=0;exitY=0.75;exitDx=0;exitDy=0;entryPerimeter=0;" edge="1" parent="zkfFHV4jXpPFQw0GAbJ--17" target="BTJYk5Sh1vVtc7OO9lpk-26">
          <mxGeometry width="50" height="50" relative="1" as="geometry">
            <mxPoint y="156" as="sourcePoint" />
            <mxPoint x="160" y="156" as="targetPoint" />
            <Array as="points">
              <mxPoint x="80" y="156" />
            </Array>
          </mxGeometry>
        </mxCell>
        <mxCell id="BTJYk5Sh1vVtc7OO9lpk-27" value="+mover(int:deltaX, int:deltaY):void" style="text;strokeColor=none;fillColor=none;align=left;verticalAlign=top;spacingLeft=4;spacingRight=4;overflow=hidden;rotatable=0;points=[[0,0.5],[1,0.5]];portConstraint=eastwest;whiteSpace=wrap;html=1;" vertex="1" parent="zkfFHV4jXpPFQw0GAbJ--17">
          <mxGeometry y="156" width="220" height="26" as="geometry" />
        </mxCell>
        <mxCell id="BTJYk5Sh1vVtc7OO9lpk-28" value="+exibir_posição(void):void" style="text;strokeColor=none;fillColor=none;align=left;verticalAlign=top;spacingLeft=4;spacingRight=4;overflow=hidden;rotatable=0;points=[[0,0.5],[1,0.5]];portConstraint=eastwest;whiteSpace=wrap;html=1;" vertex="1" parent="zkfFHV4jXpPFQw0GAbJ--17">
          <mxGeometry y="182" width="220" height="26" as="geometry" />
        </mxCell>
        <mxCell id="BTJYk5Sh1vVtc7OO9lpk-1" value="" style="endArrow=open;shadow=0;strokeWidth=1;rounded=0;curved=0;endFill=1;edgeStyle=elbowEdgeStyle;elbow=vertical;" edge="1" parent="WIyWlLk6GJQsqaUBKTNV-1" source="zkfFHV4jXpPFQw0GAbJ--0">
          <mxGeometry x="0.5" y="41" relative="1" as="geometry">
            <mxPoint x="200" y="134" as="sourcePoint" />
            <mxPoint x="280" y="69" as="targetPoint" />
            <mxPoint x="-40" y="32" as="offset" />
          </mxGeometry>
        </mxCell>
        <mxCell id="BTJYk5Sh1vVtc7OO9lpk-14" value="" style="endArrow=none;html=1;rounded=0;entryX=1.006;entryY=0.133;entryDx=0;entryDy=0;entryPerimeter=0;" edge="1" parent="WIyWlLk6GJQsqaUBKTNV-1" target="BTJYk5Sh1vVtc7OO9lpk-16">
          <mxGeometry width="50" height="50" relative="1" as="geometry">
            <mxPoint x="40" y="160" as="sourcePoint" />
            <mxPoint x="200" y="162" as="targetPoint" />
          </mxGeometry>
        </mxCell>
        <mxCell id="BTJYk5Sh1vVtc7OO9lpk-29" value="Sensor" style="swimlane;fontStyle=0;childLayout=stackLayout;horizontal=1;startSize=26;fillColor=none;horizontalStack=0;resizeParent=1;resizeParentMax=0;resizeLast=0;collapsible=1;marginBottom=0;whiteSpace=wrap;html=1;" vertex="1" parent="WIyWlLk6GJQsqaUBKTNV-1">
          <mxGeometry x="290" y="170" width="150" height="84" as="geometry" />
        </mxCell>
        <mxCell id="BTJYk5Sh1vVtc7OO9lpk-30" value="-int: raio" style="text;strokeColor=none;fillColor=none;align=left;verticalAlign=top;spacingLeft=4;spacingRight=4;overflow=hidden;rotatable=0;points=[[0,0.5],[1,0.5]];portConstraint=eastwest;whiteSpace=wrap;html=1;" vertex="1" parent="BTJYk5Sh1vVtc7OO9lpk-29">
          <mxGeometry y="26" width="150" height="24" as="geometry" />
        </mxCell>
        <mxCell id="BTJYk5Sh1vVtc7OO9lpk-36" value="" style="line;strokeWidth=1;fillColor=none;align=left;verticalAlign=middle;spacingTop=-1;spacingLeft=3;spacingRight=3;rotatable=0;labelPosition=right;points=[];portConstraint=eastwest;strokeColor=inherit;" vertex="1" parent="BTJYk5Sh1vVtc7OO9lpk-29">
          <mxGeometry y="50" width="150" height="8" as="geometry" />
        </mxCell>
        <mxCell id="BTJYk5Sh1vVtc7OO9lpk-35" value="+monitorar(void):void" style="text;strokeColor=none;fillColor=none;align=left;verticalAlign=top;spacingLeft=4;spacingRight=4;overflow=hidden;rotatable=0;points=[[0,0.5],[1,0.5]];portConstraint=eastwest;whiteSpace=wrap;html=1;" vertex="1" parent="BTJYk5Sh1vVtc7OO9lpk-29">
          <mxGeometry y="58" width="150" height="26" as="geometry" />
        </mxCell>
        <mxCell id="BTJYk5Sh1vVtc7OO9lpk-40" value="1..*" style="endArrow=open;html=1;endSize=12;startArrow=diamondThin;startSize=14;startFill=1;edgeStyle=orthogonalEdgeStyle;align=left;verticalAlign=bottom;rounded=0;entryX=0;entryY=0.5;entryDx=0;entryDy=0;exitX=1.004;exitY=0.8;exitDx=0;exitDy=0;exitPerimeter=0;" edge="1" parent="WIyWlLk6GJQsqaUBKTNV-1" source="BTJYk5Sh1vVtc7OO9lpk-11" target="zkfFHV4jXpPFQw0GAbJ--20">
          <mxGeometry x="-1" y="3" relative="1" as="geometry">
            <mxPoint x="330" y="310" as="sourcePoint" />
            <mxPoint x="490" y="310" as="targetPoint" />
            <Array as="points">
              <mxPoint x="290" y="122" />
              <mxPoint x="290" y="121" />
            </Array>
            <mxPoint as="offset" />
          </mxGeometry>
        </mxCell>
        <mxCell id="BTJYk5Sh1vVtc7OO9lpk-43" value="" style="endArrow=open;html=1;endSize=12;startArrow=diamondThin;startSize=14;startFill=1;edgeStyle=orthogonalEdgeStyle;align=left;verticalAlign=bottom;rounded=0;entryX=0.5;entryY=0;entryDx=0;entryDy=0;exitX=0;exitY=0.5;exitDx=0;exitDy=0;" edge="1" parent="WIyWlLk6GJQsqaUBKTNV-1" source="BTJYk5Sh1vVtc7OO9lpk-25" target="BTJYk5Sh1vVtc7OO9lpk-29">
          <mxGeometry x="-1" y="3" relative="1" as="geometry">
            <mxPoint x="520" y="147" as="sourcePoint" />
            <mxPoint x="490" y="310" as="targetPoint" />
          </mxGeometry>
        </mxCell>
        <mxCell id="BTJYk5Sh1vVtc7OO9lpk-46" value="1..*" style="text;html=1;align=center;verticalAlign=middle;whiteSpace=wrap;rounded=0;" vertex="1" parent="WIyWlLk6GJQsqaUBKTNV-1">
          <mxGeometry x="489" y="130" width="30" height="20" as="geometry" />
        </mxCell>
        <mxCell id="BTJYk5Sh1vVtc7OO9lpk-47" value="Obstáculo" style="swimlane;fontStyle=0;childLayout=stackLayout;horizontal=1;startSize=26;fillColor=none;horizontalStack=0;resizeParent=1;resizeParentMax=0;resizeLast=0;collapsible=1;marginBottom=0;whiteSpace=wrap;html=1;" vertex="1" parent="WIyWlLk6GJQsqaUBKTNV-1">
          <mxGeometry x="60" y="290" width="140" height="104" as="geometry" />
        </mxCell>
        <mxCell id="BTJYk5Sh1vVtc7OO9lpk-48" value="-int: largura" style="text;strokeColor=none;fillColor=none;align=left;verticalAlign=top;spacingLeft=4;spacingRight=4;overflow=hidden;rotatable=0;points=[[0,0.5],[1,0.5]];portConstraint=eastwest;whiteSpace=wrap;html=1;" vertex="1" parent="BTJYk5Sh1vVtc7OO9lpk-47">
          <mxGeometry y="26" width="140" height="26" as="geometry" />
        </mxCell>
        <mxCell id="BTJYk5Sh1vVtc7OO9lpk-49" value="-int: comprimento" style="text;strokeColor=none;fillColor=none;align=left;verticalAlign=top;spacingLeft=4;spacingRight=4;overflow=hidden;rotatable=0;points=[[0,0.5],[1,0.5]];portConstraint=eastwest;whiteSpace=wrap;html=1;" vertex="1" parent="BTJYk5Sh1vVtc7OO9lpk-47">
          <mxGeometry y="52" width="140" height="26" as="geometry" />
        </mxCell>
        <mxCell id="BTJYk5Sh1vVtc7OO9lpk-50" value="-TipoObstaculo: tipo" style="text;strokeColor=none;fillColor=none;align=left;verticalAlign=top;spacingLeft=4;spacingRight=4;overflow=hidden;rotatable=0;points=[[0,0.5],[1,0.5]];portConstraint=eastwest;whiteSpace=wrap;html=1;" vertex="1" parent="BTJYk5Sh1vVtc7OO9lpk-47">
          <mxGeometry y="78" width="140" height="26" as="geometry" />
        </mxCell>
        <mxCell id="BTJYk5Sh1vVtc7OO9lpk-56" value="&lt;div&gt;1..*&lt;br&gt;&lt;/div&gt;" style="text;html=1;align=center;verticalAlign=middle;whiteSpace=wrap;rounded=0;" vertex="1" parent="WIyWlLk6GJQsqaUBKTNV-1">
          <mxGeometry x="100" y="254" width="30" height="10" as="geometry" />
        </mxCell>
        <mxCell id="BTJYk5Sh1vVtc7OO9lpk-58" value="1" style="endArrow=open;html=1;endSize=12;startArrow=diamondThin;startSize=14;startFill=1;edgeStyle=orthogonalEdgeStyle;align=left;verticalAlign=bottom;rounded=0;entryX=0.5;entryY=0;entryDx=0;entryDy=0;" edge="1" parent="WIyWlLk6GJQsqaUBKTNV-1" target="BTJYk5Sh1vVtc7OO9lpk-47">
          <mxGeometry x="-1" y="3" relative="1" as="geometry">
            <mxPoint x="130" y="220" as="sourcePoint" />
            <mxPoint x="490" y="310" as="targetPoint" />
          </mxGeometry>
        </mxCell>
        <mxCell id="BTJYk5Sh1vVtc7OO9lpk-59" value="" style="endArrow=open;endFill=1;endSize=12;html=1;rounded=0;exitX=0.5;exitY=1;exitDx=0;exitDy=0;entryX=0.5;entryY=0;entryDx=0;entryDy=0;" edge="1" parent="WIyWlLk6GJQsqaUBKTNV-1" source="BTJYk5Sh1vVtc7OO9lpk-47" target="BTJYk5Sh1vVtc7OO9lpk-60">
          <mxGeometry width="160" relative="1" as="geometry">
            <mxPoint x="330" y="310" as="sourcePoint" />
            <mxPoint x="130" y="480" as="targetPoint" />
          </mxGeometry>
        </mxCell>
        <mxCell id="BTJYk5Sh1vVtc7OO9lpk-60" value="&lt;div&gt;&amp;lt;&amp;lt;enum&amp;gt;&amp;gt;&lt;/div&gt;&lt;div&gt;TipoObstaculo&lt;br&gt;&lt;/div&gt;" style="swimlane;fontStyle=0;childLayout=stackLayout;horizontal=1;startSize=26;fillColor=none;horizontalStack=0;resizeParent=1;resizeParentMax=0;resizeLast=0;collapsible=1;marginBottom=0;whiteSpace=wrap;html=1;" vertex="1" parent="WIyWlLk6GJQsqaUBKTNV-1">
          <mxGeometry x="30" y="425" width="200" height="160" as="geometry" />
        </mxCell>
        <mxCell id="BTJYk5Sh1vVtc7OO9lpk-61" value="MURO(10)" style="text;strokeColor=none;fillColor=none;align=left;verticalAlign=top;spacingLeft=4;spacingRight=4;overflow=hidden;rotatable=0;points=[[0,0.5],[1,0.5]];portConstraint=eastwest;whiteSpace=wrap;html=1;" vertex="1" parent="BTJYk5Sh1vVtc7OO9lpk-60">
          <mxGeometry y="26" width="200" height="26" as="geometry" />
        </mxCell>
        <mxCell id="BTJYk5Sh1vVtc7OO9lpk-62" value="BLOCO(1)" style="text;strokeColor=none;fillColor=none;align=left;verticalAlign=top;spacingLeft=4;spacingRight=4;overflow=hidden;rotatable=0;points=[[0,0.5],[1,0.5]];portConstraint=eastwest;whiteSpace=wrap;html=1;" vertex="1" parent="BTJYk5Sh1vVtc7OO9lpk-60">
          <mxGeometry y="52" width="200" height="26" as="geometry" />
        </mxCell>
        <mxCell id="BTJYk5Sh1vVtc7OO9lpk-63" value="PLACA(2)" style="text;strokeColor=none;fillColor=none;align=left;verticalAlign=top;spacingLeft=4;spacingRight=4;overflow=hidden;rotatable=0;points=[[0,0.5],[1,0.5]];portConstraint=eastwest;whiteSpace=wrap;html=1;" vertex="1" parent="BTJYk5Sh1vVtc7OO9lpk-60">
          <mxGeometry y="78" width="200" height="22" as="geometry" />
        </mxCell>
        <mxCell id="BTJYk5Sh1vVtc7OO9lpk-66" value="-int: altura" style="text;strokeColor=none;fillColor=none;align=left;verticalAlign=top;spacingLeft=4;spacingRight=4;overflow=hidden;rotatable=0;points=[[0,0.5],[1,0.5]];portConstraint=eastwest;whiteSpace=wrap;html=1;" vertex="1" parent="BTJYk5Sh1vVtc7OO9lpk-60">
          <mxGeometry y="100" width="200" height="26" as="geometry" />
        </mxCell>
        <mxCell id="BTJYk5Sh1vVtc7OO9lpk-68" value="" style="line;strokeWidth=1;fillColor=none;align=left;verticalAlign=middle;spacingTop=-1;spacingLeft=3;spacingRight=3;rotatable=0;labelPosition=right;points=[];portConstraint=eastwest;strokeColor=inherit;" vertex="1" parent="BTJYk5Sh1vVtc7OO9lpk-60">
          <mxGeometry y="126" width="200" height="8" as="geometry" />
        </mxCell>
        <mxCell id="BTJYk5Sh1vVtc7OO9lpk-67" value="impede_passagem(int h):boolean" style="text;strokeColor=none;fillColor=none;align=left;verticalAlign=top;spacingLeft=4;spacingRight=4;overflow=hidden;rotatable=0;points=[[0,0.5],[1,0.5]];portConstraint=eastwest;whiteSpace=wrap;html=1;" vertex="1" parent="BTJYk5Sh1vVtc7OO9lpk-60">
          <mxGeometry y="134" width="200" height="26" as="geometry" />
        </mxCell>
      </root>
    </mxGraphModel>
  </diagram>
</mxfile>
